<?xml version="1.0" encoding="UTF-8"?>
<!DOCTYPE svg PUBLIC "-//W3C//DTD SVG 1.1//EN" "http://www.w3.org/Graphics/SVG/1.1/DTD/svg11.dtd">
<!-- Creator: CorelDRAW 2021 (64-Bit) -->
<svg xmlns="http://www.w3.org/2000/svg" xml:space="preserve" width="1.77277in" height="0.265791in" version="1.1" style="shape-rendering:geometricPrecision; text-rendering:geometricPrecision; image-rendering:optimizeQuality; fill-rule:evenodd; clip-rule:evenodd"
viewBox="0 0 1175.92 176.31"
 xmlns:xlink="http://www.w3.org/1999/xlink"
 xmlns:xodm="http://www.corel.com/coreldraw/odm/2003">
 <defs>
  <style type="text/css">
   <![CDATA[
    .fil0 {fill:#FEFEFE;fill-rule:nonzero}
    .fil1 {fill:#222222;fill-rule:nonzero}
   ]]>
  </style>
 </defs>
 <g id="Capa_x0020_1">
  <metadata id="CorelCorpID_0Corel-Layer"/>
  <g id="_1972067934224">
   <path class="fil0" d="M335.2 27.69l21.07 0 46.64 122.65 -24.53 0 -11.4 -30.58 -42.84 0 -11.23 30.58 -24.53 0 46.81 -122.65zm27.47 75.32l-16.93 -48.2 -17.62 48.2 34.55 0z"/>
   <path class="fil0" d="M413.94 24.24l23.15 0 0 97.08c0,3.34 0.81,5.93 2.42,7.77 1.61,1.84 3.91,2.76 6.91,2.76 1.38,0 2.88,-0.23 4.49,-0.69 1.73,-0.46 3.34,-1.04 4.84,-1.73l3.11 17.62c-3.11,1.5 -6.74,2.65 -10.88,3.46 -4.15,0.8 -7.89,1.21 -11.23,1.21 -7.25,0 -12.9,-1.9 -16.93,-5.7 -3.91,-3.91 -5.87,-9.44 -5.87,-16.58l0 -105.2z"/>
   <path class="fil0" d="M496.57 152.07c-9.33,0 -16.41,-2.99 -21.24,-8.98 -4.84,-5.99 -7.25,-14.85 -7.25,-26.6l0 -56.66 23.15 0 0 51.65c0,13.94 5.01,20.9 15.03,20.9 4.49,0 8.81,-1.32 12.95,-3.97 4.26,-2.76 7.71,-6.91 10.36,-12.44l0 -56.14 23.15 0 0 63.91c0,2.42 0.4,4.15 1.21,5.18 0.92,1.04 2.36,1.61 4.32,1.73l0 19.69c-2.3,0.46 -4.26,0.75 -5.87,0.86 -1.5,0.11 -2.88,0.17 -4.14,0.17 -4.15,0 -7.54,-0.92 -10.19,-2.76 -2.53,-1.96 -4.03,-4.61 -4.49,-7.95l-0.52 -7.25c-4.03,6.22 -9.21,10.88 -15.55,13.99 -6.33,3.11 -13.3,4.66 -20.9,4.66z"/>
   <path class="fil0" d="M629.6 79.86c-7.02,0.11 -13.3,1.5 -18.83,4.15 -5.53,2.53 -9.5,6.39 -11.92,11.57l0 54.76 -23.15 0 0 -90.52 21.24 0 0 19.35c1.61,-3.11 3.51,-5.87 5.7,-8.29 2.19,-2.53 4.55,-4.72 7.08,-6.56 2.53,-1.84 5.07,-3.23 7.6,-4.15 2.65,-1.03 5.18,-1.55 7.6,-1.55 1.27,0 2.19,0 2.76,0 0.69,0 1.32,0.06 1.9,0.17l0 21.07z"/>
   <path class="fil0" d="M666.03 152.07c-4.38,0 -8.46,-0.69 -12.27,-2.07 -3.8,-1.5 -7.08,-3.51 -9.85,-6.05 -2.76,-2.65 -4.95,-5.7 -6.56,-9.16 -1.5,-3.46 -2.25,-7.25 -2.25,-11.4 0,-4.26 0.92,-8.18 2.76,-11.75 1.96,-3.68 4.61,-6.8 7.95,-9.33 3.46,-2.53 7.54,-4.49 12.26,-5.87 4.72,-1.5 9.9,-2.25 15.55,-2.25 4.03,0 7.94,0.34 11.75,1.04 3.91,0.69 7.37,1.67 10.36,2.94l0 -5.18c0,-5.99 -1.73,-10.59 -5.18,-13.82 -3.34,-3.22 -8.35,-4.84 -15.03,-4.84 -4.84,0 -9.56,0.86 -14.16,2.59 -4.61,1.73 -9.33,4.26 -14.16,7.6l-7.08 -14.68c11.63,-7.72 24.18,-11.57 37.66,-11.57 13.01,0 23.09,3.23 30.23,9.67 7.25,6.33 10.88,15.55 10.88,27.64l0 28.16c0,2.42 0.4,4.15 1.21,5.18 0.92,1.04 2.36,1.61 4.32,1.73l0 19.69c-3.92,0.8 -7.31,1.21 -10.19,1.21 -4.37,0 -7.77,-0.98 -10.19,-2.94 -2.3,-1.96 -3.74,-4.55 -4.32,-7.77l-0.52 -5.01c-4.03,5.3 -8.92,9.33 -14.68,12.09 -5.76,2.77 -11.92,4.15 -18.48,4.15zm6.56 -16.93c3.91,0 7.6,-0.69 11.05,-2.07 3.57,-1.38 6.33,-3.23 8.29,-5.53 2.53,-1.96 3.8,-4.14 3.8,-6.56l0 -10.37c-2.76,-1.04 -5.76,-1.84 -8.98,-2.42 -3.23,-0.69 -6.34,-1.04 -9.33,-1.04 -5.99,0 -10.88,1.38 -14.68,4.15 -3.8,2.65 -5.7,6.05 -5.7,10.19 0,3.92 1.5,7.2 4.49,9.85 2.99,2.54 6.68,3.8 11.05,3.8z"/>
  </g>
  <g id="_1972067948480">
   <path class="fil1" d="M844.82 136.52c-9.79,9.79 -21.19,14.68 -34.2,14.68 -8.06,0 -15.66,-1.61 -22.8,-4.84 -7.02,-3.22 -13.19,-7.66 -18.48,-13.3 -5.18,-5.64 -9.33,-12.26 -12.44,-19.87 -3,-7.71 -4.49,-16.01 -4.49,-24.87 0,-8.41 1.5,-16.3 4.49,-23.67 3.11,-7.48 7.31,-13.99 12.61,-19.52 5.41,-5.64 11.75,-10.08 19,-13.3 7.25,-3.34 15.14,-5.01 23.66,-5.01 11.52,0 21.36,2.42 29.54,7.25 8.29,4.84 14.51,11.34 18.65,19.52l-17.79 13.13c-3.11,-6.1 -7.48,-10.77 -13.13,-13.99 -5.53,-3.23 -11.57,-4.84 -18.14,-4.84 -5.18,0 -9.96,1.09 -14.34,3.28 -4.26,2.19 -7.95,5.18 -11.05,8.98 -3,3.8 -5.36,8.18 -7.08,13.13 -1.61,4.95 -2.42,10.19 -2.42,15.72 0,5.76 0.92,11.17 2.76,16.24 1.84,4.95 4.38,9.27 7.6,12.96 3.23,3.69 7.02,6.62 11.4,8.81 4.49,2.07 9.33,3.11 14.51,3.11 11.86,0 22.57,-5.58 32.13,-16.76l0 -8.64 -24.7 0 0 -17.45 44.39 0 0 63.05 -19.69 0 0 -13.82z"/>
   <path class="fil1" d="M924.56 152.07c-7.25,0 -13.82,-1.21 -19.69,-3.63 -5.87,-2.53 -10.88,-5.93 -15.03,-10.19 -4.14,-4.26 -7.37,-9.21 -9.67,-14.85 -2.19,-5.64 -3.28,-11.57 -3.28,-17.79 0,-6.45 1.09,-12.5 3.28,-18.14 2.19,-5.76 5.35,-10.77 9.5,-15.03 4.15,-4.38 9.16,-7.83 15.03,-10.37 5.99,-2.53 12.67,-3.8 20.04,-3.8 7.37,0 13.94,1.27 19.69,3.8 5.87,2.53 10.82,5.93 14.85,10.19 4.15,4.26 7.26,9.21 9.33,14.85 2.19,5.64 3.28,11.52 3.28,17.62 0,1.5 -0.06,2.94 -0.17,4.32 0,1.38 -0.11,2.53 -0.35,3.46l-69.95 0c0.34,3.57 1.21,6.74 2.59,9.5 1.38,2.76 3.17,5.12 5.35,7.08 2.19,1.96 4.66,3.45 7.43,4.49 2.76,1.04 5.64,1.56 8.64,1.56 4.6,0 8.92,-1.09 12.95,-3.28 4.15,-2.3 6.97,-5.3 8.46,-8.98l19.87 5.53c-3.34,6.91 -8.7,12.61 -16.07,17.1 -7.25,4.38 -15.95,6.57 -26.08,6.57zm23.49 -54.59c-0.57,-6.8 -3.11,-12.21 -7.6,-16.24 -4.38,-4.14 -9.73,-6.22 -16.06,-6.22 -3.11,0 -6.05,0.57 -8.81,1.73 -2.65,1.04 -5.01,2.54 -7.08,4.49 -2.07,1.96 -3.8,4.32 -5.18,7.08 -1.27,2.77 -2.02,5.82 -2.25,9.16l46.98 0z"/>
   <path class="fil1" d="M1027.96 152.07c-7.25,0 -13.82,-1.21 -19.69,-3.63 -5.87,-2.53 -10.88,-5.93 -15.03,-10.19 -4.14,-4.26 -7.37,-9.21 -9.67,-14.85 -2.19,-5.64 -3.28,-11.57 -3.28,-17.79 0,-6.45 1.09,-12.5 3.28,-18.14 2.19,-5.76 5.36,-10.77 9.5,-15.03 4.14,-4.38 9.16,-7.83 15.03,-10.37 5.99,-2.53 12.67,-3.8 20.04,-3.8 7.37,0 13.93,1.27 19.69,3.8 5.87,2.53 10.82,5.93 14.85,10.19 4.15,4.26 7.25,9.21 9.33,14.85 2.19,5.64 3.28,11.52 3.28,17.62 0,1.5 -0.06,2.94 -0.17,4.32 0,1.38 -0.12,2.53 -0.35,3.46l-69.95 0c0.34,3.57 1.21,6.74 2.59,9.5 1.38,2.76 3.17,5.12 5.35,7.08 2.19,1.96 4.66,3.45 7.43,4.49 2.76,1.04 5.64,1.56 8.64,1.56 4.6,0 8.92,-1.09 12.95,-3.28 4.14,-2.3 6.97,-5.3 8.46,-8.98l19.86 5.53c-3.34,6.91 -8.69,12.61 -16.06,17.1 -7.25,4.38 -15.95,6.57 -26.08,6.57zm23.49 -54.59c-0.57,-6.8 -3.11,-12.21 -7.6,-16.24 -4.38,-4.14 -9.73,-6.22 -16.06,-6.22 -3.11,0 -6.05,0.57 -8.81,1.73 -2.65,1.04 -5.01,2.54 -7.08,4.49 -2.07,1.96 -3.8,4.32 -5.18,7.08 -1.27,2.77 -2.01,5.82 -2.24,9.16l46.98 0z"/>
   <polygon class="fil1" points="1151.23,150.34 1124.97,111.13 1112.53,123.39 1112.53,150.34 1089.39,150.34 1089.39,24.24 1112.53,24.24 1112.53,100.76 1148.81,59.99 1173.51,59.99 1139.83,98.34 1175.92,150.34 "/>
  </g>
  <path class="fil0" d="M241.6 139.66l-13.73 -96.46c-3.52,-24.81 -24.81,-43.2 -49.87,-43.2l-114.09 0c-25.06,0 -46.34,18.39 -49.87,43.2l-13.73 96.46c-2.77,19.39 12.21,36.64 31.73,36.64 8.56,0 16.62,-3.4 22.67,-9.44l28.46 -28.33 75.56 0 28.33 28.33c6.04,6.04 14.23,9.44 22.67,9.44 19.65,0 34.63,-17.25 31.86,-36.64zm-133.23 -64.1l-25.19 0 0 25.19 -12.59 0 0 -25.19 -25.18 0 0 -12.6 25.18 0 0 -25.19 12.59 0 0 25.19 25.19 0 0 12.6zm50.37 -12.6c-6.93,0 -12.59,-5.67 -12.59,-12.59 0,-6.93 5.67,-12.6 12.59,-12.6 6.93,0 12.59,5.67 12.59,12.6 0,6.93 -5.67,12.59 -12.59,12.59zm25.19 37.78c-6.93,0 -12.59,-5.67 -12.59,-12.59 0,-6.93 5.67,-12.59 12.59,-12.59 6.93,0 12.59,5.66 12.59,12.59 0,6.93 -5.67,12.59 -12.59,12.59z"/>
 </g>
</svg>
