<?xml version="1.0" encoding="UTF-8"?>
<!DOCTYPE svg PUBLIC "-//W3C//DTD SVG 1.1//EN" "http://www.w3.org/Graphics/SVG/1.1/DTD/svg11.dtd">
<!-- Creator: CorelDRAW 2021 (64-Bit) -->
<svg xmlns="http://www.w3.org/2000/svg" xml:space="preserve" width="0.416913in" height="0.303815in" version="1.1" style="shape-rendering:geometricPrecision; text-rendering:geometricPrecision; image-rendering:optimizeQuality; fill-rule:evenodd; clip-rule:evenodd"
viewBox="0 0 13.94 10.16"
 xmlns:xlink="http://www.w3.org/1999/xlink"
 xmlns:xodm="http://www.corel.com/coreldraw/odm/2003">
 <defs>
  <style type="text/css">
   <![CDATA[
    .fil0 {fill:#EE332C;fill-rule:nonzero}
   ]]>
  </style>
 </defs>
 <g id="Capa_x0020_1">
  <metadata id="CorelCorpID_0Corel-Layer"/>
  <path class="fil0" d="M13.92 8.04l-0.79 -5.56c-0.2,-1.43 -1.43,-2.49 -2.87,-2.49l-6.57 0c-1.44,0 -2.67,1.06 -2.87,2.49l-0.79 5.56c-0.16,1.12 0.7,2.11 1.83,2.11 0.49,0 0.96,-0.2 1.31,-0.54l1.64 -1.63 4.35 0 1.63 1.63c0.35,0.35 0.82,0.54 1.31,0.54 1.13,0 1.99,-0.99 1.84,-2.11zm-7.67 -3.69l-1.45 0 0 1.45 -0.73 0 0 -1.45 -1.45 0 0 -0.73 1.45 0 0 -1.45 0.73 0 0 1.45 1.45 0 0 0.73zm2.9 -0.73c-0.4,0 -0.73,-0.33 -0.73,-0.73 0,-0.4 0.33,-0.73 0.73,-0.73 0.4,0 0.73,0.33 0.73,0.73 0,0.4 -0.33,0.73 -0.73,0.73zm1.45 2.18c-0.4,0 -0.73,-0.33 -0.73,-0.73 0,-0.4 0.33,-0.73 0.73,-0.73 0.4,0 0.73,0.33 0.73,0.73 0,0.4 -0.33,0.73 -0.73,0.73z"/>
 </g>
</svg>
