<?xml version="1.0" encoding="UTF-8"?>
<!DOCTYPE svg PUBLIC "-//W3C//DTD SVG 1.1//EN" "http://www.w3.org/Graphics/SVG/1.1/DTD/svg11.dtd">
<!-- Creator: CorelDRAW 2021 (64-Bit) -->
<svg xmlns="http://www.w3.org/2000/svg" xml:space="preserve" width="1.78619in" height="0.303815in" version="1.1" style="shape-rendering:geometricPrecision; text-rendering:geometricPrecision; image-rendering:optimizeQuality; fill-rule:evenodd; clip-rule:evenodd"
viewBox="0 0 255.8 43.51"
 xmlns:xlink="http://www.w3.org/1999/xlink"
 xmlns:xodm="http://www.corel.com/coreldraw/odm/2003">
 <defs>
  <style type="text/css">
   <![CDATA[
    .fil1 {fill:#222222;fill-rule:nonzero}
    .fil0 {fill:#EE332C;fill-rule:nonzero}
    .fil2 {fill:#EE332C;fill-rule:nonzero}
   ]]>
  </style>
 </defs>
 <g id="Capa_x0020_1">
  <metadata id="CorelCorpID_0Corel-Layer"/>
  <g id="_2386514967440">
   <path class="fil0" d="M77.15 8.7l4.55 0 10.07 26.48 -5.3 0 -2.46 -6.6 -9.25 0 -2.42 6.6 -5.3 0 10.11 -26.48zm5.93 16.26l-3.65 -10.41 -3.8 10.41 7.46 0z"/>
   <path class="fil0" d="M94.15 7.96l5 0 0 20.96c0,0.72 0.17,1.28 0.52,1.68 0.35,0.4 0.85,0.6 1.49,0.6 0.3,0 0.62,-0.05 0.97,-0.15 0.37,-0.1 0.72,-0.22 1.04,-0.37l0.67 3.8c-0.67,0.32 -1.45,0.57 -2.35,0.75 -0.9,0.17 -1.7,0.26 -2.42,0.26 -1.57,0 -2.78,-0.41 -3.65,-1.23 -0.85,-0.85 -1.27,-2.04 -1.27,-3.58l0 -22.71z"/>
   <path class="fil0" d="M111.99 35.55c-2.01,0 -3.54,-0.65 -4.59,-1.94 -1.04,-1.29 -1.57,-3.21 -1.57,-5.74l0 -12.23 5 0 0 11.15c0,3.01 1.08,4.51 3.24,4.51 0.97,0 1.9,-0.29 2.8,-0.86 0.92,-0.6 1.67,-1.49 2.24,-2.69l0 -12.12 5 0 0 13.8c0,0.52 0.09,0.9 0.26,1.12 0.2,0.22 0.51,0.35 0.93,0.37l0 4.25c-0.5,0.1 -0.92,0.16 -1.27,0.19 -0.32,0.02 -0.62,0.04 -0.89,0.04 -0.9,0 -1.63,-0.2 -2.2,-0.6 -0.55,-0.42 -0.87,-0.99 -0.97,-1.72l-0.11 -1.57c-0.87,1.34 -1.99,2.35 -3.36,3.02 -1.37,0.67 -2.87,1.01 -4.51,1.01z"/>
   <path class="fil0" d="M140.71 19.96c-1.52,0.02 -2.87,0.32 -4.06,0.9 -1.19,0.55 -2.05,1.38 -2.57,2.5l0 11.82 -5 0 0 -19.54 4.59 0 0 4.18c0.35,-0.67 0.76,-1.27 1.23,-1.79 0.47,-0.55 0.98,-1.02 1.53,-1.42 0.55,-0.4 1.09,-0.7 1.64,-0.9 0.57,-0.22 1.12,-0.34 1.64,-0.34 0.27,0 0.47,0 0.6,0 0.15,0 0.29,0.01 0.41,0.04l0 4.55z"/>
   <path class="fil0" d="M148.58 35.55c-0.94,0 -1.83,-0.15 -2.65,-0.45 -0.82,-0.32 -1.53,-0.76 -2.13,-1.31 -0.6,-0.57 -1.07,-1.23 -1.42,-1.98 -0.32,-0.75 -0.48,-1.57 -0.48,-2.46 0,-0.92 0.2,-1.77 0.6,-2.54 0.42,-0.8 0.99,-1.47 1.72,-2.01 0.75,-0.55 1.63,-0.97 2.65,-1.27 1.02,-0.32 2.14,-0.48 3.36,-0.48 0.87,0 1.72,0.07 2.54,0.22 0.85,0.15 1.59,0.36 2.24,0.63l0 -1.12c0,-1.29 -0.37,-2.29 -1.12,-2.98 -0.72,-0.7 -1.8,-1.04 -3.24,-1.04 -1.04,0 -2.06,0.19 -3.06,0.56 -0.99,0.37 -2.01,0.92 -3.06,1.64l-1.53 -3.17c2.51,-1.67 5.22,-2.5 8.13,-2.5 2.81,0 4.98,0.7 6.53,2.09 1.57,1.37 2.35,3.36 2.35,5.97l0 6.08c0,0.52 0.09,0.9 0.26,1.12 0.2,0.22 0.51,0.35 0.93,0.37l0 4.25c-0.85,0.17 -1.58,0.26 -2.2,0.26 -0.94,0 -1.68,-0.21 -2.2,-0.63 -0.5,-0.42 -0.81,-0.98 -0.93,-1.68l-0.11 -1.08c-0.87,1.14 -1.93,2.01 -3.17,2.61 -1.24,0.6 -2.57,0.9 -3.99,0.9zm1.42 -3.65c0.85,0 1.64,-0.15 2.39,-0.45 0.77,-0.3 1.37,-0.7 1.79,-1.19 0.55,-0.42 0.82,-0.89 0.82,-1.42l0 -2.24c-0.6,-0.22 -1.24,-0.4 -1.94,-0.52 -0.7,-0.15 -1.37,-0.22 -2.01,-0.22 -1.29,0 -2.35,0.3 -3.17,0.9 -0.82,0.57 -1.23,1.31 -1.23,2.2 0,0.85 0.32,1.55 0.97,2.13 0.65,0.55 1.44,0.82 2.39,0.82z"/>
  </g>
  <g id="_2386514968928">
   <path class="fil1" d="M184.31 32.2c-2.11,2.11 -4.57,3.17 -7.38,3.17 -1.74,0 -3.38,-0.35 -4.92,-1.04 -1.52,-0.7 -2.85,-1.65 -3.99,-2.87 -1.12,-1.22 -2.01,-2.65 -2.68,-4.29 -0.65,-1.67 -0.97,-3.46 -0.97,-5.37 0,-1.81 0.32,-3.52 0.97,-5.11 0.67,-1.62 1.58,-3.02 2.72,-4.21 1.17,-1.22 2.54,-2.18 4.1,-2.87 1.57,-0.72 3.27,-1.08 5.11,-1.08 2.49,0 4.61,0.52 6.38,1.57 1.79,1.04 3.13,2.45 4.03,4.21l-3.84 2.83c-0.67,-1.32 -1.62,-2.32 -2.83,-3.02 -1.19,-0.7 -2.5,-1.04 -3.92,-1.04 -1.12,0 -2.15,0.24 -3.1,0.71 -0.92,0.47 -1.72,1.12 -2.39,1.94 -0.65,0.82 -1.16,1.77 -1.53,2.83 -0.35,1.07 -0.52,2.2 -0.52,3.39 0,1.24 0.2,2.41 0.6,3.51 0.4,1.07 0.94,2 1.64,2.8 0.7,0.8 1.52,1.43 2.46,1.9 0.97,0.45 2.01,0.67 3.13,0.67 2.56,0 4.87,-1.21 6.94,-3.62l0 -1.86 -5.33 0 0 -3.77 9.58 0 0 13.61 -4.25 0 0 -2.98z"/>
   <path class="fil1" d="M201.53 35.55c-1.57,0 -2.98,-0.26 -4.25,-0.78 -1.27,-0.55 -2.35,-1.28 -3.24,-2.2 -0.89,-0.92 -1.59,-1.99 -2.09,-3.21 -0.47,-1.22 -0.71,-2.5 -0.71,-3.84 0,-1.39 0.24,-2.7 0.71,-3.92 0.47,-1.24 1.16,-2.32 2.05,-3.24 0.9,-0.94 1.98,-1.69 3.24,-2.24 1.29,-0.55 2.73,-0.82 4.33,-0.82 1.59,0 3.01,0.27 4.25,0.82 1.27,0.55 2.34,1.28 3.21,2.2 0.9,0.92 1.57,1.99 2.01,3.21 0.47,1.22 0.71,2.49 0.71,3.8 0,0.32 -0.01,0.63 -0.04,0.93 0,0.3 -0.02,0.55 -0.07,0.75l-15.1 0c0.07,0.77 0.26,1.45 0.56,2.05 0.3,0.6 0.68,1.11 1.16,1.53 0.47,0.42 1.01,0.75 1.6,0.97 0.6,0.22 1.22,0.34 1.86,0.34 0.99,0 1.93,-0.24 2.8,-0.71 0.9,-0.5 1.5,-1.14 1.83,-1.94l4.29 1.19c-0.72,1.49 -1.88,2.72 -3.47,3.69 -1.57,0.94 -3.44,1.42 -5.63,1.42zm5.07 -11.78c-0.12,-1.47 -0.67,-2.64 -1.64,-3.51 -0.94,-0.89 -2.1,-1.34 -3.47,-1.34 -0.67,0 -1.31,0.12 -1.9,0.37 -0.57,0.22 -1.08,0.55 -1.53,0.97 -0.45,0.42 -0.82,0.93 -1.12,1.53 -0.27,0.6 -0.44,1.26 -0.48,1.98l10.14 0z"/>
   <path class="fil1" d="M223.85 35.55c-1.57,0 -2.98,-0.26 -4.25,-0.78 -1.27,-0.55 -2.35,-1.28 -3.24,-2.2 -0.89,-0.92 -1.59,-1.99 -2.09,-3.21 -0.47,-1.22 -0.71,-2.5 -0.71,-3.84 0,-1.39 0.24,-2.7 0.71,-3.92 0.47,-1.24 1.16,-2.32 2.05,-3.24 0.89,-0.94 1.98,-1.69 3.24,-2.24 1.29,-0.55 2.73,-0.82 4.33,-0.82 1.59,0 3.01,0.27 4.25,0.82 1.27,0.55 2.34,1.28 3.21,2.2 0.9,0.92 1.57,1.99 2.01,3.21 0.47,1.22 0.71,2.49 0.71,3.8 0,0.32 -0.01,0.63 -0.04,0.93 0,0.3 -0.03,0.55 -0.07,0.75l-15.1 0c0.07,0.77 0.26,1.45 0.56,2.05 0.3,0.6 0.68,1.11 1.16,1.53 0.47,0.42 1.01,0.75 1.6,0.97 0.6,0.22 1.22,0.34 1.86,0.34 0.99,0 1.93,-0.24 2.8,-0.71 0.89,-0.5 1.5,-1.14 1.83,-1.94l4.29 1.19c-0.72,1.49 -1.88,2.72 -3.47,3.69 -1.57,0.94 -3.44,1.42 -5.63,1.42zm5.07 -11.78c-0.12,-1.47 -0.67,-2.64 -1.64,-3.51 -0.94,-0.89 -2.1,-1.34 -3.47,-1.34 -0.67,0 -1.31,0.12 -1.9,0.37 -0.57,0.22 -1.08,0.55 -1.53,0.97 -0.45,0.42 -0.82,0.93 -1.12,1.53 -0.27,0.6 -0.43,1.26 -0.48,1.98l10.14 0z"/>
   <polygon class="fil1" points="250.47,35.18 244.8,26.71 242.11,29.36 242.11,35.18 237.11,35.18 237.11,7.96 242.11,7.96 242.11,24.48 249.94,15.68 255.28,15.68 248,23.95 255.8,35.18 "/>
  </g>
  <path class="fil2" d="M59.62 34.47l-3.39 -23.81c-0.87,-6.12 -6.12,-10.66 -12.31,-10.66l-28.15 0c-6.18,0 -11.44,4.54 -12.31,10.66l-3.39 23.81c-0.68,4.79 3.01,9.04 7.83,9.04 2.11,0 4.1,-0.84 5.59,-2.33l7.02 -6.99 18.65 0 6.99 6.99c1.49,1.49 3.51,2.33 5.59,2.33 4.85,0 8.55,-4.26 7.86,-9.04zm-32.88 -15.82l-6.22 0 0 6.22 -3.11 0 0 -6.22 -6.21 0 0 -3.11 6.21 0 0 -6.22 3.11 0 0 6.22 6.22 0 0 3.11zm12.43 -3.11c-1.71,0 -3.11,-1.4 -3.11,-3.11 0,-1.71 1.4,-3.11 3.11,-3.11 1.71,0 3.11,1.4 3.11,3.11 0,1.71 -1.4,3.11 -3.11,3.11zm6.22 9.32c-1.71,0 -3.11,-1.4 -3.11,-3.11 0,-1.71 1.4,-3.11 3.11,-3.11 1.71,0 3.11,1.4 3.11,3.11 0,1.71 -1.4,3.11 -3.11,3.11z"/>
 </g>
</svg>
