<?xml version="1.0" encoding="UTF-8"?>
<!DOCTYPE svg PUBLIC "-//W3C//DTD SVG 1.1//EN" "http://www.w3.org/Graphics/SVG/1.1/DTD/svg11.dtd">
<!-- Creator: CorelDRAW 2021 (64-Bit) -->
<svg xmlns="http://www.w3.org/2000/svg" xml:space="preserve" width="1.74104in" height="0.275075in" version="1.1" style="shape-rendering:geometricPrecision; text-rendering:geometricPrecision; image-rendering:optimizeQuality; fill-rule:evenodd; clip-rule:evenodd"
viewBox="0 0 1168.36 184.59"
 xmlns:xlink="http://www.w3.org/1999/xlink"
 xmlns:xodm="http://www.corel.com/coreldraw/odm/2003">
 <defs>
  <style type="text/css">
   <![CDATA[
    .fil1 {fill:#222222;fill-rule:nonzero}
    .fil0 {fill:#EE332C;fill-rule:nonzero}
    .fil2 {fill:#EE332C;fill-rule:nonzero}
   ]]>
  </style>
 </defs>
 <g id="Capa_x0020_1">
  <metadata id="CorelCorpID_0Corel-Layer"/>
  <g id="_2222381605712">
   <path class="fil0" d="M331.24 31.13l21.32 0 47.18 124.08 -24.81 0 -11.54 -30.93 -43.34 0 -11.36 30.93 -24.81 0 47.36 -124.08zm27.79 76.2l-17.13 -48.76 -17.83 48.76 34.95 0z"/>
   <path class="fil0" d="M410.9 27.64l23.42 0 0 98.21c0,3.38 0.82,6 2.45,7.87 1.63,1.86 3.96,2.8 6.99,2.8 1.4,0 2.91,-0.23 4.54,-0.7 1.75,-0.46 3.38,-1.05 4.89,-1.75l3.15 17.83c-3.15,1.51 -6.82,2.68 -11.01,3.5 -4.2,0.81 -7.98,1.22 -11.36,1.22 -7.34,0 -13.05,-1.92 -17.12,-5.77 -3.96,-3.96 -5.94,-9.55 -5.94,-16.78l0 -106.43z"/>
   <path class="fil0" d="M494.5 156.96c-9.44,0 -16.6,-3.03 -21.49,-9.09 -4.89,-6.06 -7.34,-15.03 -7.34,-26.91l0 -57.32 23.42 0 0 52.25c0,14.1 5.07,21.14 15.2,21.14 4.54,0 8.91,-1.34 13.1,-4.02 4.31,-2.8 7.8,-6.99 10.48,-12.58l0 -56.8 23.42 0 0 64.66c0,2.45 0.41,4.2 1.22,5.24 0.93,1.05 2.39,1.63 4.37,1.75l0 19.92c-2.33,0.46 -4.31,0.76 -5.94,0.87 -1.51,0.12 -2.91,0.17 -4.19,0.17 -4.2,0 -7.63,-0.93 -10.31,-2.8 -2.56,-1.98 -4.08,-4.66 -4.54,-8.04l-0.52 -7.34c-4.08,6.29 -9.32,11.01 -15.73,14.16 -6.41,3.15 -13.45,4.72 -21.14,4.72z"/>
   <path class="fil0" d="M629.08 83.91c-7.11,0.12 -13.45,1.51 -19.05,4.2 -5.59,2.56 -9.61,6.46 -12.06,11.71l0 55.4 -23.42 0 0 -91.57 21.49 0 0 19.57c1.63,-3.14 3.55,-5.94 5.77,-8.39 2.21,-2.56 4.6,-4.77 7.17,-6.64 2.56,-1.87 5.13,-3.26 7.69,-4.2 2.68,-1.05 5.24,-1.57 7.69,-1.57 1.28,0 2.21,0 2.8,0 0.7,0 1.34,0.06 1.92,0.17l0 21.32z"/>
   <path class="fil0" d="M665.93 156.96c-4.43,0 -8.56,-0.7 -12.41,-2.1 -3.84,-1.51 -7.16,-3.55 -9.96,-6.12 -2.8,-2.68 -5.01,-5.77 -6.64,-9.26 -1.51,-3.5 -2.27,-7.34 -2.27,-11.53 0,-4.31 0.93,-8.27 2.8,-11.88 1.98,-3.73 4.66,-6.87 8.04,-9.44 3.5,-2.56 7.63,-4.54 12.41,-5.94 4.78,-1.51 10.02,-2.27 15.73,-2.27 4.08,0 8.04,0.35 11.88,1.05 3.96,0.7 7.46,1.69 10.48,2.97l0 -5.24c0,-6.06 -1.75,-10.72 -5.24,-13.98 -3.38,-3.26 -8.45,-4.89 -15.2,-4.89 -4.89,0 -9.67,0.87 -14.33,2.62 -4.66,1.75 -9.44,4.31 -14.33,7.69l-7.17 -14.85c11.77,-7.81 24.46,-11.71 38.1,-11.71 13.17,0 23.36,3.26 30.58,9.79 7.34,6.41 11.01,15.73 11.01,27.96l0 28.49c0,2.45 0.41,4.2 1.22,5.24 0.93,1.05 2.39,1.63 4.37,1.75l0 19.92c-3.96,0.81 -7.4,1.22 -10.31,1.22 -4.43,0 -7.86,-0.99 -10.31,-2.97 -2.33,-1.98 -3.79,-4.6 -4.37,-7.87l-0.52 -5.07c-4.08,5.36 -9.03,9.44 -14.85,12.23 -5.83,2.8 -12.06,4.2 -18.7,4.2zm6.64 -17.13c3.96,0 7.69,-0.7 11.18,-2.1 3.61,-1.4 6.41,-3.26 8.39,-5.59 2.56,-1.98 3.84,-4.19 3.84,-6.64l0 -10.49c-2.8,-1.05 -5.83,-1.86 -9.09,-2.45 -3.26,-0.7 -6.41,-1.05 -9.44,-1.05 -6.06,0 -11.01,1.4 -14.85,4.2 -3.84,2.68 -5.77,6.12 -5.77,10.31 0,3.96 1.51,7.28 4.54,9.96 3.03,2.57 6.76,3.85 11.18,3.85z"/>
  </g>
  <g id="_2222381607296">
   <path class="fil1" d="M833.39 141.23c-9.9,9.9 -21.43,14.85 -34.6,14.85 -8.16,0 -15.84,-1.63 -23.07,-4.89 -7.11,-3.26 -13.34,-7.75 -18.7,-13.46 -5.24,-5.71 -9.44,-12.41 -12.58,-20.1 -3.03,-7.8 -4.54,-16.19 -4.54,-25.17 0,-8.5 1.51,-16.49 4.54,-23.94 3.14,-7.57 7.4,-14.16 12.76,-19.75 5.48,-5.71 11.88,-10.2 19.22,-13.46 7.34,-3.38 15.32,-5.07 23.94,-5.07 11.65,0 21.61,2.45 29.88,7.34 8.39,4.9 14.68,11.48 18.87,19.75l-18 13.28c-3.14,-6.17 -7.57,-10.89 -13.28,-14.16 -5.59,-3.26 -11.71,-4.89 -18.35,-4.89 -5.24,0 -10.08,1.11 -14.5,3.32 -4.31,2.21 -8.04,5.24 -11.18,9.09 -3.03,3.85 -5.42,8.27 -7.17,13.28 -1.63,5.01 -2.45,10.31 -2.45,15.9 0,5.83 0.93,11.3 2.8,16.43 1.87,5.01 4.43,9.38 7.69,13.11 3.26,3.73 7.11,6.7 11.54,8.91 4.54,2.1 9.43,3.14 14.68,3.14 12,0 22.83,-5.65 32.5,-16.95l0 -8.74 -24.99 0 0 -17.65 44.91 0 0 63.79 -19.92 0 0 -13.98z"/>
   <path class="fil1" d="M914.05 156.96c-7.34,0 -13.98,-1.22 -19.92,-3.67 -5.94,-2.56 -11.01,-6 -15.2,-10.31 -4.19,-4.31 -7.46,-9.32 -9.78,-15.03 -2.21,-5.71 -3.32,-11.71 -3.32,-18 0,-6.53 1.11,-12.64 3.32,-18.35 2.21,-5.82 5.42,-10.89 9.61,-15.2 4.2,-4.43 9.26,-7.92 15.2,-10.49 6.06,-2.56 12.81,-3.84 20.27,-3.84 7.46,0 14.1,1.28 19.92,3.84 5.94,2.56 10.95,6 15.03,10.31 4.2,4.31 7.34,9.32 9.44,15.03 2.21,5.71 3.32,11.65 3.32,17.83 0,1.51 -0.06,2.97 -0.17,4.37 0,1.4 -0.12,2.56 -0.35,3.5l-70.77 0c0.35,3.61 1.22,6.81 2.62,9.61 1.4,2.8 3.2,5.18 5.42,7.17 2.21,1.98 4.72,3.49 7.52,4.54 2.8,1.05 5.71,1.57 8.74,1.57 4.66,0 9.03,-1.11 13.1,-3.32 4.2,-2.33 7.05,-5.36 8.56,-9.09l20.1 5.59c-3.38,6.99 -8.8,12.76 -16.25,17.3 -7.34,4.43 -16.13,6.64 -26.39,6.64zm23.76 -55.22c-0.58,-6.87 -3.14,-12.35 -7.69,-16.43 -4.43,-4.19 -9.84,-6.29 -16.25,-6.29 -3.15,0 -6.12,0.58 -8.91,1.75 -2.68,1.05 -5.07,2.57 -7.17,4.54 -2.1,1.98 -3.84,4.37 -5.24,7.17 -1.28,2.8 -2.04,5.88 -2.27,9.26l47.53 0z"/>
   <path class="fil1" d="M1018.66 156.96c-7.34,0 -13.98,-1.22 -19.92,-3.67 -5.94,-2.56 -11.01,-6 -15.2,-10.31 -4.19,-4.31 -7.46,-9.32 -9.79,-15.03 -2.21,-5.71 -3.32,-11.71 -3.32,-18 0,-6.53 1.1,-12.64 3.32,-18.35 2.21,-5.82 5.42,-10.89 9.61,-15.2 4.19,-4.43 9.26,-7.92 15.2,-10.49 6.06,-2.56 12.81,-3.84 20.27,-3.84 7.46,0 14.1,1.28 19.92,3.84 5.94,2.56 10.95,6 15.03,10.31 4.2,4.31 7.34,9.32 9.44,15.03 2.21,5.71 3.32,11.65 3.32,17.83 0,1.51 -0.06,2.97 -0.17,4.37 0,1.4 -0.12,2.56 -0.35,3.5l-70.77 0c0.35,3.61 1.22,6.81 2.62,9.61 1.4,2.8 3.2,5.18 5.42,7.17 2.21,1.98 4.72,3.49 7.52,4.54 2.8,1.05 5.71,1.57 8.74,1.57 4.66,0 9.03,-1.11 13.1,-3.32 4.19,-2.33 7.05,-5.36 8.56,-9.09l20.1 5.59c-3.38,6.99 -8.8,12.76 -16.25,17.3 -7.34,4.43 -16.13,6.64 -26.39,6.64zm23.76 -55.22c-0.58,-6.87 -3.14,-12.35 -7.69,-16.43 -4.43,-4.19 -9.84,-6.29 -16.25,-6.29 -3.15,0 -6.12,0.58 -8.91,1.75 -2.68,1.05 -5.07,2.57 -7.17,4.54 -2.1,1.98 -3.84,4.37 -5.24,7.17 -1.28,2.8 -2.04,5.88 -2.27,9.26l47.53 0z"/>
   <polygon class="fil1" points="1143.37,155.21 1116.81,115.54 1104.22,127.95 1104.22,155.21 1080.81,155.21 1080.81,27.64 1104.22,27.64 1104.22,105.05 1140.92,63.81 1165.91,63.81 1131.84,102.61 1168.36,155.21 "/>
  </g>
  <path class="fil2" d="M252.96 146.23l-14.37 -101c-3.69,-25.97 -25.97,-45.23 -52.21,-45.23l-119.45 0c-26.24,0 -48.52,19.25 -52.21,45.23l-14.37 101c-2.9,20.31 12.79,38.37 33.23,38.37 8.96,0 17.41,-3.56 23.73,-9.89l29.8 -29.66 79.11 0 29.67 29.66c6.33,6.33 14.9,9.89 23.73,9.89 20.57,0 36.26,-18.06 33.36,-38.37zm-139.49 -67.11l-26.37 0 0 26.37 -13.19 0 0 -26.37 -26.37 0 0 -13.18 26.37 0 0 -26.37 13.19 0 0 26.37 26.37 0 0 13.18zm52.74 -13.18c-7.25,0 -13.18,-5.94 -13.18,-13.19 0,-7.25 5.93,-13.19 13.18,-13.19 7.25,0 13.19,5.93 13.19,13.19 0,7.25 -5.93,13.19 -13.19,13.19zm26.37 39.55c-7.25,0 -13.18,-5.93 -13.18,-13.18 0,-7.25 5.93,-13.19 13.18,-13.19 7.25,0 13.19,5.93 13.19,13.19 0,7.25 -5.94,13.18 -13.19,13.18z"/>
 </g>
</svg>
