<?xml version="1.0" encoding="UTF-8"?>
<!DOCTYPE svg PUBLIC "-//W3C//DTD SVG 1.1//EN" "http://www.w3.org/Graphics/SVG/1.1/DTD/svg11.dtd">
<!-- Creator: CorelDRAW 2021 (64-Bit) -->
<svg xmlns="http://www.w3.org/2000/svg" xml:space="preserve" width="1.75277in" height="0.265791in" version="1.1" style="shape-rendering:geometricPrecision; text-rendering:geometricPrecision; image-rendering:optimizeQuality; fill-rule:evenodd; clip-rule:evenodd"
viewBox="0 0 1167.01 176.97"
 xmlns:xlink="http://www.w3.org/1999/xlink"
 xmlns:xodm="http://www.corel.com/coreldraw/odm/2003">
 <defs>
  <style type="text/css">
   <![CDATA[
    .fil1 {fill:#FEFEFE;fill-rule:nonzero}
    .fil0 {fill:#EE332C;fill-rule:nonzero}
    .fil2 {fill:#EE332C;fill-rule:nonzero}
   ]]>
  </style>
 </defs>
 <g id="Capa_x0020_1">
  <metadata id="CorelCorpID_0Corel-Layer"/>
  <g id="_1972065186656">
   <path class="fil0" d="M336.45 27.8l21.15 0 46.81 123.11 -24.62 0 -11.44 -30.69 -43 0 -11.27 30.69 -24.62 0 46.98 -123.11zm27.57 75.6l-16.99 -48.38 -17.69 48.38 34.68 0z"/>
   <path class="fil0" d="M415.49 24.33l23.23 0 0 97.44c0,3.35 0.81,5.95 2.43,7.8 1.62,1.85 3.93,2.77 6.94,2.77 1.39,0 2.89,-0.23 4.51,-0.69 1.74,-0.46 3.35,-1.04 4.85,-1.73l3.12 17.69c-3.12,1.5 -6.76,2.66 -10.92,3.47 -4.16,0.81 -7.92,1.21 -11.27,1.21 -7.28,0 -12.94,-1.91 -16.99,-5.72 -3.93,-3.93 -5.9,-9.48 -5.9,-16.65l0 -105.59z"/>
   <path class="fil0" d="M498.43 152.64c-9.36,0 -16.47,-3 -21.32,-9.02 -4.85,-6.01 -7.28,-14.91 -7.28,-26.7l0 -56.87 23.23 0 0 51.84c0,13.99 5.03,20.98 15.08,20.98 4.51,0 8.84,-1.33 13,-3.99 4.28,-2.77 7.74,-6.94 10.4,-12.49l0 -56.35 23.23 0 0 64.15c0,2.43 0.41,4.16 1.21,5.2 0.93,1.04 2.37,1.62 4.34,1.74l0 19.77c-2.31,0.46 -4.28,0.75 -5.9,0.87 -1.5,0.12 -2.89,0.17 -4.16,0.17 -4.16,0 -7.57,-0.92 -10.23,-2.77 -2.54,-1.97 -4.04,-4.62 -4.51,-7.98l-0.52 -7.28c-4.04,6.24 -9.25,10.92 -15.6,14.04 -6.36,3.12 -13.35,4.68 -20.98,4.68z"/>
   <path class="fil0" d="M631.96 80.16c-7.05,0.12 -13.35,1.5 -18.9,4.16 -5.55,2.54 -9.54,6.41 -11.96,11.61l0 54.97 -23.23 0 0 -90.86 21.32 0 0 19.42c1.62,-3.12 3.53,-5.89 5.72,-8.32 2.2,-2.54 4.57,-4.74 7.11,-6.59 2.54,-1.85 5.09,-3.24 7.63,-4.16 2.66,-1.04 5.2,-1.56 7.63,-1.56 1.27,0 2.19,0 2.77,0 0.69,0 1.33,0.06 1.91,0.17l0 21.15z"/>
   <path class="fil0" d="M668.52 152.64c-4.39,0 -8.5,-0.69 -12.31,-2.08 -3.81,-1.5 -7.11,-3.53 -9.88,-6.07 -2.77,-2.66 -4.97,-5.72 -6.59,-9.19 -1.5,-3.47 -2.25,-7.28 -2.25,-11.44 0,-4.28 0.93,-8.21 2.77,-11.79 1.97,-3.7 4.62,-6.82 7.98,-9.36 3.47,-2.54 7.57,-4.51 12.31,-5.9 4.74,-1.5 9.94,-2.25 15.6,-2.25 4.04,0 7.97,0.35 11.79,1.04 3.93,0.69 7.4,1.68 10.4,2.95l0 -5.2c0,-6.01 -1.73,-10.63 -5.2,-13.87 -3.35,-3.23 -8.38,-4.85 -15.09,-4.85 -4.85,0 -9.59,0.87 -14.22,2.6 -4.62,1.73 -9.36,4.28 -14.22,7.63l-7.11 -14.74c11.68,-7.75 24.27,-11.62 37.8,-11.62 13.06,0 23.17,3.24 30.34,9.71 7.28,6.36 10.92,15.6 10.92,27.74l0 28.26c0,2.43 0.4,4.16 1.21,5.2 0.93,1.04 2.37,1.62 4.34,1.74l0 19.77c-3.93,0.81 -7.34,1.21 -10.23,1.21 -4.39,0 -7.8,-0.98 -10.23,-2.95 -2.31,-1.97 -3.76,-4.57 -4.34,-7.8l-0.52 -5.03c-4.05,5.32 -8.96,9.36 -14.74,12.14 -5.78,2.78 -11.96,4.16 -18.55,4.16zm6.59 -16.99c3.93,0 7.63,-0.69 11.1,-2.08 3.58,-1.39 6.36,-3.24 8.32,-5.55 2.54,-1.96 3.81,-4.16 3.81,-6.59l0 -10.4c-2.77,-1.04 -5.78,-1.85 -9.01,-2.43 -3.24,-0.69 -6.36,-1.04 -9.36,-1.04 -6.01,0 -10.92,1.39 -14.74,4.16 -3.81,2.66 -5.72,6.07 -5.72,10.23 0,3.93 1.5,7.22 4.51,9.88 3,2.55 6.7,3.82 11.1,3.82z"/>
  </g>
  <g id="_1972065190256">
   <path class="fil1" d="M834.67 137.03c-9.82,9.82 -21.27,14.74 -34.33,14.74 -8.09,0 -15.72,-1.62 -22.89,-4.85 -7.05,-3.23 -13.23,-7.69 -18.55,-13.35 -5.2,-5.66 -9.36,-12.31 -12.48,-19.94 -3.01,-7.74 -4.51,-16.07 -4.51,-24.97 0,-8.44 1.5,-16.36 4.51,-23.75 3.12,-7.51 7.34,-14.04 12.66,-19.59 5.43,-5.66 11.79,-10.12 19.07,-13.35 7.28,-3.35 15.2,-5.03 23.75,-5.03 11.56,0 21.44,2.43 29.65,7.28 8.32,4.86 14.56,11.39 18.72,19.59l-17.86 13.18c-3.12,-6.13 -7.51,-10.81 -13.17,-14.04 -5.55,-3.24 -11.62,-4.85 -18.2,-4.85 -5.2,0 -10,1.1 -14.39,3.29 -4.28,2.2 -7.98,5.2 -11.1,9.01 -3.01,3.82 -5.38,8.21 -7.11,13.18 -1.62,4.97 -2.43,10.23 -2.43,15.78 0,5.78 0.93,11.21 2.77,16.3 1.85,4.97 4.39,9.31 7.63,13 3.24,3.7 7.05,6.65 11.44,8.84 4.51,2.08 9.36,3.12 14.56,3.12 11.91,0 22.65,-5.6 32.25,-16.82l0 -8.67 -24.79 0 0 -17.51 44.56 0 0 63.29 -19.76 0 0 -13.87z"/>
   <path class="fil1" d="M914.7 152.64c-7.28,0 -13.87,-1.21 -19.76,-3.64 -5.9,-2.54 -10.92,-5.95 -15.09,-10.23 -4.16,-4.28 -7.4,-9.25 -9.71,-14.91 -2.2,-5.66 -3.29,-11.62 -3.29,-17.86 0,-6.47 1.1,-12.54 3.29,-18.21 2.19,-5.78 5.37,-10.81 9.53,-15.08 4.16,-4.39 9.19,-7.86 15.09,-10.4 6.01,-2.54 12.71,-3.81 20.11,-3.81 7.4,0 13.99,1.27 19.76,3.81 5.9,2.54 10.87,5.95 14.91,10.23 4.16,4.28 7.28,9.25 9.36,14.91 2.2,5.66 3.29,11.56 3.29,17.69 0,1.5 -0.06,2.95 -0.17,4.34 0,1.39 -0.12,2.54 -0.35,3.47l-70.22 0c0.35,3.58 1.21,6.76 2.6,9.54 1.39,2.77 3.18,5.14 5.37,7.11 2.2,1.96 4.68,3.47 7.46,4.51 2.77,1.04 5.66,1.56 8.67,1.56 4.62,0 8.96,-1.1 13,-3.29 4.16,-2.31 6.99,-5.32 8.5,-9.02l19.94 5.55c-3.35,6.94 -8.73,12.66 -16.13,17.16 -7.28,4.39 -16.01,6.59 -26.18,6.59zm23.58 -54.79c-0.58,-6.82 -3.12,-12.25 -7.63,-16.3 -4.39,-4.16 -9.77,-6.24 -16.12,-6.24 -3.12,0 -6.07,0.58 -8.84,1.73 -2.66,1.04 -5.03,2.55 -7.11,4.51 -2.08,1.97 -3.81,4.34 -5.2,7.11 -1.27,2.78 -2.02,5.84 -2.25,9.19l47.16 0z"/>
   <path class="fil1" d="M1018.49 152.64c-7.28,0 -13.87,-1.21 -19.76,-3.64 -5.9,-2.54 -10.92,-5.95 -15.09,-10.23 -4.16,-4.28 -7.4,-9.25 -9.71,-14.91 -2.2,-5.66 -3.29,-11.62 -3.29,-17.86 0,-6.47 1.1,-12.54 3.29,-18.21 2.2,-5.78 5.38,-10.81 9.54,-15.08 4.16,-4.39 9.19,-7.86 15.09,-10.4 6.01,-2.54 12.71,-3.81 20.11,-3.81 7.4,0 13.98,1.27 19.76,3.81 5.9,2.54 10.87,5.95 14.91,10.23 4.16,4.28 7.28,9.25 9.36,14.91 2.2,5.66 3.29,11.56 3.29,17.69 0,1.5 -0.06,2.95 -0.17,4.34 0,1.39 -0.12,2.54 -0.35,3.47l-70.22 0c0.35,3.58 1.21,6.76 2.6,9.54 1.39,2.77 3.18,5.14 5.37,7.11 2.2,1.96 4.68,3.47 7.46,4.51 2.77,1.04 5.66,1.56 8.67,1.56 4.62,0 8.96,-1.1 13,-3.29 4.16,-2.31 6.99,-5.32 8.5,-9.02l19.94 5.55c-3.35,6.94 -8.73,12.66 -16.12,17.16 -7.28,4.39 -16.01,6.59 -26.18,6.59zm23.58 -54.79c-0.58,-6.82 -3.12,-12.25 -7.63,-16.3 -4.39,-4.16 -9.77,-6.24 -16.12,-6.24 -3.12,0 -6.07,0.58 -8.84,1.73 -2.66,1.04 -5.03,2.55 -7.11,4.51 -2.08,1.97 -3.81,4.34 -5.2,7.11 -1.27,2.78 -2.02,5.84 -2.25,9.19l47.16 0z"/>
   <polygon class="fil1" points="1142.22,150.9 1115.86,111.54 1103.38,123.85 1103.38,150.9 1080.15,150.9 1080.15,24.33 1103.38,24.33 1103.38,101.14 1139.79,60.22 1164.58,60.22 1130.77,98.71 1167.01,150.9 "/>
  </g>
  <path class="fil2" d="M242.51 140.18l-13.78 -96.83c-3.54,-24.9 -24.9,-43.36 -50.05,-43.36l-114.51 0c-25.15,0 -46.51,18.46 -50.05,43.36l-13.78 96.83c-2.78,19.47 12.26,36.78 31.85,36.78 8.6,0 16.68,-3.41 22.75,-9.48l28.56 -28.44 75.84 0 28.44 28.44c6.07,6.07 14.28,9.48 22.75,9.48 19.72,0 34.76,-17.32 31.98,-36.78zm-133.73 -64.34l-25.28 0 0 25.28 -12.64 0 0 -25.28 -25.28 0 0 -12.64 25.28 0 0 -25.28 12.64 0 0 25.28 25.28 0 0 12.64zm50.56 -12.64c-6.95,0 -12.64,-5.69 -12.64,-12.64 0,-6.95 5.69,-12.64 12.64,-12.64 6.95,0 12.64,5.69 12.64,12.64 0,6.95 -5.69,12.64 -12.64,12.64zm25.28 37.92c-6.95,0 -12.64,-5.69 -12.64,-12.64 0,-6.95 5.69,-12.64 12.64,-12.64 6.95,0 12.64,5.69 12.64,12.64 0,6.95 -5.69,12.64 -12.64,12.64z"/>
 </g>
</svg>
